<svg width="92" height="94" viewBox="0 0 92 94" fill="none" xmlns="http://www.w3.org/2000/svg">
<rect width="92" height="94" fill="#1E1E1E"/>
<rect width="92" height="78" transform="translate(0 16)" fill="white"/>
<path d="M51.5625 79.25C52.9383 79.25 54.2578 78.8615 55.2306 78.17C56.2035 77.4784 56.75 76.5405 56.75 75.5625V38.6875C56.75 37.7095 56.2035 36.7716 55.2306 36.08C54.2578 35.3885 52.9383 35 51.5625 35H41.1875C38.3275 35 36 36.652 36 38.6875V75.5625C36 77.598 38.3275 79.25 41.1875 79.25H51.5625Z" fill="#2196F3"/>
<path d="M11 75.5C11 77.5355 13.3275 79.1875 16.1875 79.1875H26.5625C27.9383 79.1875 29.2578 78.799 30.2306 78.1075C31.2035 77.4159 31.75 76.478 31.75 75.5V49.6875C31.75 48.7095 31.2035 47.7716 30.2306 47.08C29.2578 46.3885 27.9383 46 26.5625 46H16.1875C13.3275 46 11 47.652 11 49.6875V75.5Z" fill="#FFC107"/>
<path d="M81.75 75.125V56.6875C81.75 55.7095 81.2035 54.7716 80.2306 54.08C79.2578 53.3885 77.9383 53 76.5625 53H66.1875C64.8117 53 63.4922 53.3885 62.5194 54.08C61.5465 54.7716 61 55.7095 61 56.6875V75.125C61 76.103 61.5465 77.0409 62.5194 77.7325C63.4922 78.424 64.8117 78.8125 66.1875 78.8125H76.5625C77.9383 78.8125 79.2578 78.424 80.2306 77.7325C81.2035 77.0409 81.75 76.103 81.75 75.125Z" fill="#F44336"/>
<rect x="13" width="1" height="2" fill="#D9D9D9"/>
</svg>
