<svg width="92" height="78" viewBox="0 0 92 78" fill="none" xmlns="http://www.w3.org/2000/svg">
<rect width="92" height="78" fill="white"/>
<path d="M51.5625 63.25C52.9383 63.25 54.2578 62.8615 55.2306 62.17C56.2035 61.4784 56.75 60.5405 56.75 59.5625V22.6875C56.75 21.7095 56.2035 20.7716 55.2306 20.08C54.2578 19.3885 52.9383 19 51.5625 19H41.1875C38.3275 19 36 20.652 36 22.6875V59.5625C36 61.598 38.3275 63.25 41.1875 63.25H51.5625Z" fill="#2196F3"/>
<path d="M11 59.5C11 61.5355 13.3275 63.1875 16.1875 63.1875H26.5625C27.9383 63.1875 29.2578 62.799 30.2306 62.1075C31.2035 61.4159 31.75 60.478 31.75 59.5V33.6875C31.75 32.7095 31.2035 31.7716 30.2306 31.08C29.2578 30.3885 27.9383 30 26.5625 30H16.1875C13.3275 30 11 31.652 11 33.6875V59.5Z" fill="#FFC107"/>
<path d="M81.75 59.125V40.6875C81.75 39.7095 81.2035 38.7716 80.2306 38.08C79.2578 37.3885 77.9383 37 76.5625 37H66.1875C64.8117 37 63.4922 37.3885 62.5194 38.08C61.5465 38.7716 61 39.7095 61 40.6875V59.125C61 60.103 61.5465 61.0409 62.5194 61.7325C63.4922 62.424 64.8117 62.8125 66.1875 62.8125H76.5625C77.9383 62.8125 79.2578 62.424 80.2306 61.7325C81.2035 61.0409 81.75 60.103 81.75 59.125Z" fill="#F44336"/>
</svg>
