<svg width="92" height="78" viewBox="0 0 92 78" fill="none" xmlns="http://www.w3.org/2000/svg">
<path d="M66.7172 53.1554C68.6646 53.6526 70.4586 54.509 71.9689 55.6628C72.2238 55.8009 72.3887 56.0332 72.4097 56.29C72.4097 56.6719 72.0743 57.0473 71.3824 57.4048C70.1404 58.11 68.9425 58.8672 67.7925 59.6765C66.6578 60.4614 65.4695 61.1878 64.2313 61.8491C64.0723 61.9206 63.894 61.9596 63.7138 61.9629C63.4608 61.9661 63.2155 61.8849 63.0315 61.7354C62.6788 61.4754 62.6424 61.0236 62.9491 60.7246C62.9567 60.7165 62.9663 60.7084 62.974 60.7019C63.3612 60.2794 63.8652 59.943 64.4422 59.7253C65.1207 59.41 65.7627 59.0411 66.3627 58.6267C67.3229 58.0076 67.8979 57.5932 68.2832 57.4064C69.0422 57.0814 69.4351 56.8523 69.4351 56.7141C69.4427 56.6849 69.4427 56.654 69.4351 56.6248C68.9617 55.9634 68.2276 55.4678 67.3612 55.224C66.5064 55.0209 65.6324 54.8015 64.7603 54.5724C63.8863 54.3871 63.0947 53.9955 62.4757 53.4414C62.4565 53.391 62.4565 53.3374 62.4757 53.287C62.5063 53.0562 62.6405 52.8434 62.8494 52.6922C63.0219 52.5102 63.2749 52.3965 63.5509 52.3754C63.6908 52.3591 63.8327 52.3591 63.9726 52.3754C64.4862 52.3997 64.9922 52.5038 65.4599 52.6841L66.8514 53.1976M25.8079 52.455C26.1548 52.4501 26.4941 52.5444 26.7682 52.7231C26.9982 52.8726 27.1362 53.1034 27.1419 53.3504C27.1438 53.5259 27.0595 53.6933 26.9119 53.8151C25.8769 54.5886 24.6637 55.1736 23.3507 55.5327C22.0282 55.8902 20.8591 56.5695 19.9908 57.486C21.229 58.0954 22.5132 58.6397 23.8318 59.1142L27.807 60.5963C28.1156 60.7003 28.3111 60.9586 28.2957 61.2398C28.3532 61.6216 28.1577 62.0002 27.7878 62.2245C27.4237 62.4796 26.9637 62.6178 26.4922 62.6145C26.3005 62.6145 26.1107 62.582 25.9344 62.517C25.6642 62.2928 25.3747 62.0864 25.07 61.8979C22.7662 60.8124 20.3013 59.7984 17.6774 58.8542C17.4187 58.7649 17.1503 58.6755 16.8897 58.6024C16.6002 58.5032 16.3856 58.2904 16.3127 58.032C16.3242 57.3495 16.6731 56.7044 17.273 56.2494C18.5073 55.4873 19.8452 54.8535 21.2577 54.3611C22.6818 53.8785 24.0254 53.2366 25.2521 52.4566L25.8079 52.455Z" fill="#5D4037"/>
<path d="M42.2644 52.39C41.9367 51.9594 41.5284 51.5775 41.055 51.259C40.6755 51.0347 40.2212 50.9177 39.7593 50.9259C39.6041 50.9226 39.4507 50.947 39.3089 50.999L36.4282 51.8131C36.2442 51.8619 36.0544 51.883 35.8608 51.8781C35.5197 51.8992 35.1804 51.818 34.9006 51.6506C34.5517 51.3939 34.2566 51.0884 34.0266 50.7471L33.2292 51.2037C33.5666 51.6831 34.0017 52.1072 34.5153 52.4566C34.9197 52.6711 35.3912 52.7767 35.8685 52.7572C36.1119 52.7556 36.3553 52.7247 36.5892 52.6679L39.2495 51.8537C39.4297 51.7952 39.6213 51.7644 39.8168 51.7644C40.1082 51.7481 40.3995 51.8147 40.6429 51.9512C40.9783 52.1836 41.2697 52.4582 41.5073 52.7654L42.2663 52.4079" fill="#5D4037"/>
<path fill-rule="evenodd" clip-rule="evenodd" d="M61.8872 65.9913C63.3458 73.398 52.67 74.1309 48.2827 70.785C45.2487 68.4889 46.1035 65.2909 50.4524 65.494C54.2934 65.6663 56.5302 69.849 61.8872 65.9913Z" fill="#5D4037"/>
<path fill-rule="evenodd" clip-rule="evenodd" d="M29.4477 65.9913C27.9891 73.398 38.6649 74.1309 43.0522 70.785C46.0862 68.4889 45.2314 65.2909 40.8825 65.494C37.0415 65.6663 34.8047 69.849 29.4477 65.9913Z" fill="#5D4037"/>
<path d="M39.9414 55.2468C39.4067 54.9478 38.7761 54.7983 38.1359 54.8161C37.3616 54.7918 36.6064 55.0258 36.0333 55.4678C35.3855 56.0073 35.1095 56.7905 35.3031 57.5429C35.397 58.2514 35.7305 58.9209 36.2633 59.4718C36.7157 59.9853 37.4267 60.2875 38.1838 60.2859C38.6783 60.2794 39.1632 60.1672 39.5945 59.9609C40.4589 59.5221 40.8806 58.6918 40.8806 57.4454C40.9917 56.628 40.6448 55.8139 39.9414 55.2468ZM38.0976 58.1929C37.5667 58.1929 37.1373 57.8289 37.1373 57.3788C37.1373 56.9286 37.5667 56.5646 38.0976 56.5646C38.6285 56.5646 39.0578 56.9286 39.0578 57.3788C39.0578 57.8289 38.6285 58.1929 38.0976 58.1929Z" fill="#5D4037"/>
<path d="M46.3737 64.8603C46.6402 64.8619 46.9027 64.8196 47.1519 64.7384C47.3896 64.6604 47.6157 64.5564 47.8247 64.4296C48.0202 64.2964 48.2042 64.1485 48.3728 63.9909C48.5319 63.8398 48.6718 63.6756 48.7945 63.5017C48.9114 63.349 49.0149 63.1881 49.1012 63.0208C49.1682 62.9005 49.2238 62.7754 49.2641 62.647V62.5739C49.2449 62.5511 49.2277 62.5268 49.2162 62.5008C48.967 62.8258 48.6546 63.115 48.2942 63.3555C48.0182 63.5765 47.6924 63.7455 47.334 63.8527C46.9737 63.9584 46.5922 64.0104 46.2108 64.0071C45.885 64.012 45.5611 63.973 45.2506 63.8934C44.9842 63.8219 44.735 63.7114 44.5107 63.5684C44.2865 63.4156 44.0833 63.2401 43.9051 63.0468C43.7192 62.8355 43.5601 62.6096 43.4259 62.3708C43.4048 62.3886 43.3876 62.4114 43.378 62.4358C43.378 62.4358 43.378 62.4845 43.378 62.5008C43.5083 62.8128 43.677 63.1118 43.8763 63.3961C44.0565 63.6691 44.2827 63.9194 44.5491 64.1371C44.7867 64.3484 45.0666 64.5206 45.3752 64.6506C45.6799 64.7595 46.0057 64.8196 46.3354 64.8294" fill="#5D4037"/>
<path d="M54.8416 55.198C54.3088 54.8974 53.6782 54.743 53.0361 54.7592C52.2598 54.7365 51.5047 54.9737 50.9335 55.419C50.2895 55.9601 50.0173 56.7434 50.2128 57.4941C50.301 58.2026 50.6345 58.8754 51.1731 59.423C51.6254 59.9349 52.3384 60.2371 53.0936 60.2371C53.5881 60.2306 54.0749 60.1185 54.5043 59.9121C55.4492 59.3401 55.9456 58.3732 55.7999 57.3966C55.7539 56.2965 55.4453 55.5555 54.8416 55.198ZM52.7294 58.2839C52.1985 58.2839 51.7692 57.9199 51.7692 57.4697C51.7692 57.0196 52.1985 56.6556 52.7294 56.6556C53.2603 56.6556 53.6897 57.0196 53.6897 57.4697C53.6897 57.9199 53.2584 58.2839 52.7294 58.2839Z" fill="#5D4037"/>
<path d="M73.8281 16.1704C73.6115 15.886 73.3988 15.5951 73.1783 15.3286C73.002 15.1141 72.8218 14.9191 72.6436 14.716C72.381 14.417 72.1165 14.1196 71.8501 13.8434C71.691 13.6776 71.53 13.5249 71.369 13.3672C71.0719 13.078 70.7768 12.7969 70.4778 12.5336C70.3417 12.415 70.2075 12.3012 70.0714 12.1875C69.7245 11.895 69.3757 11.6187 69.0249 11.3587C68.9425 11.2986 68.862 11.2369 68.7796 11.1784C64.4077 8.01612 59.9783 7.21337 57.1339 6.68525L55.5603 6.38462C49.8008 5.44862 44.9612 4.97575 40.0545 5.5705C38.1225 5.92637 36.2557 6.50162 34.5058 7.28C32.0965 8.20787 29.5895 9.16825 27.1707 9.3145C24.6388 9.86862 22.4403 11.2027 21.0067 13.0585L20.7383 13.3835C19.4523 15.6634 19.1149 18.2455 19.7781 20.709C20.3071 22.1747 20.9588 23.6064 21.574 24.9827C22.9847 27.7891 24.0063 30.7255 24.6177 33.7334C25.254 34.8026 25.7504 35.9271 26.0954 37.0874C26.9119 39.4972 27.8434 42.2077 30.3677 44.3154H30.4348C30.4558 44.3072 30.4769 44.3008 30.498 44.2926C30.5038 44.2975 30.5076 44.3024 30.5133 44.3073C32.6983 43.4297 34.8067 42.8415 36.8518 42.4808C37.1393 42.4304 37.4229 42.3946 37.7066 42.354C38.0516 42.3036 38.3966 42.2516 38.7378 42.2126C39.2917 42.1525 39.8418 42.1086 40.388 42.081C40.4359 42.0777 40.4838 42.0729 40.5318 42.0712C47.5257 41.7462 53.7798 43.9124 59.8901 46.0249L60.9922 46.4116C61.0267 46.3986 61.0593 46.3645 61.0938 46.3482C61.1129 46.3547 61.1302 46.3612 61.1493 46.3677C62.6463 45.8136 63.4053 41.5496 64.4134 37.5765C68.0417 30.5354 76.1549 25.3662 75.6662 18.8549C75.0739 17.8685 74.4548 16.9959 73.8281 16.1704Z" fill="#CFD8DC"/>
<path d="M61.0052 46.4153L60.992 46.4116L60.9864 46.4153H61.0052Z" fill="#CFD8DC"/>
<path d="M60.3232 42.874C60.3098 42.7294 60.2389 42.5815 60.1872 42.4352L60.1852 42.4287C59.5393 40.6429 56.0912 38.7692 51.3954 37.7552C51.1367 37.6967 50.8722 37.6691 50.6115 37.6187C50.6 37.6171 50.5885 37.6155 50.577 37.6122C49.4557 37.3945 48.323 37.2482 47.1826 37.1621C47.1136 37.1572 47.0446 37.1507 46.9756 37.1459C46.3277 37.102 45.6818 37.0744 45.0321 37.0744C44.4609 37.0711 43.8878 37.0792 43.3167 37.1117C43.0617 37.1264 42.8087 37.1475 42.5557 37.1686C41.9597 37.219 41.3674 37.2872 40.7809 37.3799C40.5758 37.4091 40.3688 37.4189 40.1637 37.453C36.2959 38.0559 32.8862 39.9734 30.7261 42.7602L30.8507 47.0665V47.1315H30.9082C34.2451 45.5114 37.9366 44.486 41.7565 44.1204C47.8342 43.6556 54.0557 45.227 60.1316 48.8247H60.1891V48.7435C60.5973 46.8049 60.6433 44.824 60.3232 42.874Z" fill="#EF5350"/>
<path fill-rule="evenodd" clip-rule="evenodd" d="M24.8687 12.8066C24.2152 15.6227 27.1726 24.5115 26.2123 29.1753C25.714 26.7329 23.8702 21.8497 23.9468 19.1392C23.0632 17.511 22.1701 15.5171 21.1907 14.7517C20.2112 13.9864 23.2166 10.0067 24.9167 12.8066" fill="#ECEFF1"/>
<path d="M31.579 41.4261C27.738 37.5846 26.1069 30.966 24.7633 25.3906C23.6977 20.9625 22.7853 17.186 21.0278 15.9981C20.8188 15.7576 20.6789 15.4797 20.6253 15.184C20.5639 14.6201 20.7 14.053 21.0182 13.5557C21.321 13 21.7868 12.5206 22.3713 12.1631C22.7413 11.947 23.1648 11.8089 23.6095 11.7569V11.83C23.1668 11.882 22.747 12.0201 22.3809 12.2362C21.9938 12.6474 21.6468 13.0861 21.344 13.546C20.4796 15.0117 22.3043 14.9386 22.9866 15.7349C24.7633 16.9471 24.9071 20.9284 25.9823 25.3727C27.3259 30.94 27.7687 37.5424 31.6173 41.3676L31.5598 41.4245" fill="#B0BEC5"/>
<path fill-rule="evenodd" clip-rule="evenodd" d="M31.4352 11.6594C30.7721 14.4674 32.4626 20.93 31.4352 25.6019C30.9369 23.1595 29.0931 18.2764 29.1697 15.574C28.2766 13.9457 27.2492 12.0575 26.588 11.089C25.9267 10.1205 28.9589 9.04638 31.3892 11.6594" fill="#ECEFF1"/>
<path d="M30.1492 10.6665C29.6163 10.2879 28.9033 10.1497 28.2287 10.2927C27.9642 10.3171 27.7112 10.3951 27.4888 10.5202C27.2933 10.6291 27.1611 10.8046 27.1247 11.0012C27.1247 11.2937 26.8563 11.3425 27.1247 11.8885C29.2752 14.3309 30.9657 18.4567 31.3682 22.8117C31.9451 28.3384 31.1861 34.4597 35.5063 38.7985L35.4392 38.8473C31.0998 34.4841 30.4558 28.3546 29.8904 22.8199C29.4304 18.473 29.0164 14.4852 26.8851 12.0347C26.5228 11.6919 26.3388 11.2401 26.3772 10.7819C26.4193 10.5674 26.5612 10.3772 26.7701 10.2521C27.0058 10.1124 27.2799 10.0279 27.5674 10.0084C28.4855 9.94662 29.3998 10.1595 30.1492 10.6112L30.0917 10.6681" fill="#B0BEC5"/>
<path d="M41.9961 6.70963C43.9932 9.53388 40.3247 22.2479 39.6539 30.2331C39.5964 30.9091 32.568 3.86913 41.9769 6.70963" fill="#ECEFF1"/>
<path d="M41.1604 37.2824C38.3333 30.6378 36.6179 23.6893 36.0621 16.64C35.8455 14.3081 36.0659 11.9616 36.7157 9.68825C37.3405 7.88125 38.4349 6.69338 40.1331 6.4805C40.7541 6.41225 41.3827 6.45125 41.9865 6.59425V6.66738C41.3751 6.5715 40.7464 6.58775 40.1427 6.71613C38.7224 6.99238 38.8949 7.7415 37.9634 9.44288C37.237 11.6301 37.0012 13.9133 37.2715 16.1736C38.4809 22.88 39.9702 32.0304 41.2562 37.2304H41.1892" fill="#B0BEC5"/>
<path d="M47.7844 36.8518C47.6886 36.3058 47.6023 35.7533 47.5065 35.2235C46.0287 26.1398 44.2137 15.0703 50.5693 7.1175H50.646C48.0451 13.0033 47.6886 24.2109 47.3819 27.8249C47.2478 29.3881 47.4586 32.708 47.6023 35.1504C47.6886 35.7126 47.794 36.2651 47.8803 36.8193H47.7844" fill="#B0BEC5"/>
<path d="M54.6787 38.0152C54.8991 33.3271 55.4856 27.8411 56.0223 23.0864C57.3563 17.095 60.9481 14.2626 61.8892 8.20625V8.13475C58.65 12.7286 56.4976 17.8133 55.5527 23.1042C54.6768 28.0378 54.4084 33.0363 54.7553 38.0169H54.6595" fill="#B0BEC5"/>
<path d="M71.3345 15.3221C68.4538 22.8426 65.0555 30.1941 61.5998 37.6334C61.6956 27.7843 67.9171 15.9315 71.3345 15.3221Z" fill="#B0BEC5"/>
<path d="M59.9112 40.9451C61.4273 39.611 61.5346 37.5586 61.6688 35.1747C61.6362 32.7356 62.1498 30.3128 63.1848 28.0361C63.1848 27.9386 63.2711 27.7842 63.3382 27.5714C64.1834 25.0884 67.5529 15.0849 71.4802 15.2636V15.3367C68.3982 15.2392 64.4709 25.1046 63.5413 27.6039C63.4743 27.807 63.4551 27.937 63.4168 28.0426C62.3128 30.485 62.2457 32.9258 61.8815 35.1569C61.7569 37.5505 61.5173 39.6175 59.961 40.9679H59.9035" fill="#B0BEC5"/>
</svg>
